<?xml version="1.0" encoding="UTF-8" standalone="no"?>
<svg
   xmlns:dc="http://purl.org/dc/elements/1.1/"
   xmlns:cc="http://creativecommons.org/ns#"
   xmlns:rdf="http://www.w3.org/1999/02/22-rdf-syntax-ns#"
   xmlns:svg="http://www.w3.org/2000/svg"
   xmlns="http://www.w3.org/2000/svg"
   xmlns:sodipodi="http://sodipodi.sourceforge.net/DTD/sodipodi-0.dtd"
   xmlns:inkscape="http://www.inkscape.org/namespaces/inkscape"
   inkscape:export-ydpi="130"
   inkscape:export-xdpi="130"
   inkscape:export-filename="C:\Users\kczarnecki\Desktop\LocalRepos\_opensource\mkcommit\static\logo.png"
   width="512"
   height="512"
   viewBox="0 0 135.46667 135.46667"
   version="1.1"
   id="svg8"
   inkscape:version="1.0 (4035a4fb49, 2020-05-01)"
   sodipodi:docname="logo.svg">
  <defs
     id="defs2">
    <rect
       x="30.201457"
       y="89.000753"
       width="71.360964"
       height="27.528761"
       id="rect1097" />
    <inkscape:perspective
       sodipodi:type="inkscape:persp3d"
       inkscape:vp_x="1.8708861 : -0.15312339 : 1"
       inkscape:vp_y="0 : 1000 : 0"
       inkscape:vp_z="135.73394 : 134.55072 : 1"
       inkscape:persp3d-origin="67.733335 : 45.155557 : 1"
       id="perspective833" />
    <inkscape:perspective
       id="perspective833-9"
       inkscape:persp3d-origin="88.196966 : 51.855309 : 1"
       inkscape:vp_z="148.61394 : 53.018157 : 1"
       inkscape:vp_y="0 : 264.58333 : 0"
       inkscape:vp_x="-4.8976001 : 55.164672 : 1"
       sodipodi:type="inkscape:persp3d" />
  </defs>
  <sodipodi:namedview
     id="base"
     pagecolor="#ffffff"
     bordercolor="#666666"
     borderopacity="1.0"
     inkscape:pageopacity="0.0"
     inkscape:pageshadow="2"
     inkscape:zoom="0.98994949"
     inkscape:cx="254.50866"
     inkscape:cy="249.36818"
     inkscape:document-units="mm"
     inkscape:current-layer="layer1"
     inkscape:document-rotation="0"
     showgrid="false"
     units="px"
     width="512px"
     inkscape:window-width="1080"
     inkscape:window-height="864"
     inkscape:window-x="1920"
     inkscape:window-y="572"
     inkscape:window-maximized="0" />
  <metadata
     id="metadata5">
    <rdf:RDF>
      <cc:Work
         rdf:about="">
        <dc:format>image/svg+xml</dc:format>
        <dc:type
           rdf:resource="http://purl.org/dc/dcmitype/StillImage" />
        <dc:title />
      </cc:Work>
    </rdf:RDF>
  </metadata>
  <g
     inkscape:label="Layer 1"
     inkscape:groupmode="layer"
     id="layer1">
    <g
       id="g1114"
       transform="translate(-10.811008)">
      <path
         d="m 52.1944,49.558187 c -0.766482,-0.0141 2.028229,3.902739 -0.270267,4.371308 -8.092784,1.649794 -4.75031,-2.989871 -12.837977,-1.315164 -2.625191,0.543597 3.785124,1.260816 2.30632,3.496945 -4.555882,6.889041 -5.47301,1.244266 -10.007658,8.147306 -1.471909,2.240672 3.567599,-1.78453 4.103108,0.842325 1.649793,8.092784 -2.989871,4.750311 -1.315165,12.837978 0.543597,2.62519 1.260817,-3.785124 3.496945,-2.30632 6.889041,4.555881 1.244267,5.473012 8.147307,10.007658 2.240671,1.471908 -1.784527,-3.5676 0.842325,-4.103108 8.092784,-1.649794 4.750313,2.989871 12.837977,1.315164 2.625191,-0.543597 -3.785124,-1.260816 -2.30632,-3.496945 4.555884,-6.889041 5.473012,-1.244267 10.007658,-8.147307 1.471912,-2.240671 -3.567599,1.78453 -4.103108,-0.842324 -1.649793,-8.092784 2.989871,-4.750314 1.315165,-12.837978 -0.543598,-2.62519 -1.260817,3.785124 -3.496945,2.30632 -6.889041,-4.555881 -1.24427,-5.473012 -8.147307,-10.007658 -0.280083,-0.183988 -0.46256,-0.266187 -0.572058,-0.2682 z m -2.902665,12.963549 a 5.2117558,5.2117558 0 0 1 5.21157,5.211569 5.2117558,5.2117558 0 0 1 -5.21157,5.211569 5.2117558,5.2117558 0 0 1 -5.211569,-5.211569 5.2117558,5.2117558 0 0 1 5.211569,-5.211569 z"
         inkscape:transform-center-y="1.0736802"
         inkscape:transform-center-x="-0.68884054"
         style="fill:#ff0000;stroke-width:0.264583"
         id="path1093" />
      <text
         transform="translate(34.477769,-28.727543)"
         style="font-size:10.5833px;line-height:1.25;font-family:sans-serif;word-spacing:0px;white-space:pre;shape-inside:url(#rect1097);fill:#ff0000;"
         id="text1095"
         xml:space="preserve"><tspan
           x="30.201172"
           y="98.655465"><tspan
             style="font-style:normal;font-variant:normal;font-weight:normal;font-stretch:normal;font-family:'Swis721 BlkOul BT';-inkscape-font-specification:'Swis721 BlkOul BT';fill:#ff0000">mkcommit</tspan></tspan></text>
    </g>
  </g>
</svg>
